<mxfile host="app.diagrams.net" modified="2023-02-11T03:27:39.694Z" agent="5.0 (Macintosh; Intel Mac OS X 10_15_7) AppleWebKit/537.36 (KHTML, like Gecko) Chrome/109.0.0.0 Safari/537.36" etag="F-arLJQVGPSUfTZ6MAbV" version="20.8.20" type="github">
  <diagram name="第 1 页" id="0LVPehOY_WrmLCmyi4WT">
    <mxGraphModel dx="954" dy="534" grid="1" gridSize="10" guides="1" tooltips="1" connect="1" arrows="1" fold="1" page="1" pageScale="1" pageWidth="827" pageHeight="1169" math="0" shadow="0">
      <root>
        <mxCell id="0" />
        <mxCell id="1" parent="0" />
        <mxCell id="HNwQTkgMW-BbUdKWEHss-1" value="Reinforcement Learning&lt;br&gt;(PPO)" style="whiteSpace=wrap;html=1;aspect=fixed;" vertex="1" parent="1">
          <mxGeometry x="500" y="175" width="110" height="110" as="geometry" />
        </mxCell>
        <mxCell id="HNwQTkgMW-BbUdKWEHss-2" value="Network Configuration Generator&amp;nbsp;" style="rounded=1;whiteSpace=wrap;html=1;" vertex="1" parent="1">
          <mxGeometry x="320" y="170" width="110" height="140" as="geometry" />
        </mxCell>
        <mxCell id="HNwQTkgMW-BbUdKWEHss-3" value="RouteNet-F" style="rounded=1;whiteSpace=wrap;html=1;" vertex="1" parent="1">
          <mxGeometry x="180" y="170" width="110" height="140" as="geometry" />
        </mxCell>
        <mxCell id="HNwQTkgMW-BbUdKWEHss-5" value="Existing Training Samples" style="rounded=0;whiteSpace=wrap;html=1;" vertex="1" parent="1">
          <mxGeometry x="230" y="350" width="120" height="60" as="geometry" />
        </mxCell>
        <mxCell id="HNwQTkgMW-BbUdKWEHss-6" value="Existing Network Configurations" style="shape=note;whiteSpace=wrap;html=1;backgroundOutline=1;darkOpacity=0.05;" vertex="1" parent="1">
          <mxGeometry x="230" y="60" width="150" height="80" as="geometry" />
        </mxCell>
        <mxCell id="HNwQTkgMW-BbUdKWEHss-7" value="Reward Model&lt;br&gt;(Compare Entropy)" style="rounded=1;whiteSpace=wrap;html=1;" vertex="1" parent="1">
          <mxGeometry x="414" y="345" width="110" height="70" as="geometry" />
        </mxCell>
        <mxCell id="HNwQTkgMW-BbUdKWEHss-8" value="" style="endArrow=classic;html=1;rounded=0;exitX=0.427;exitY=0.994;exitDx=0;exitDy=0;exitPerimeter=0;" edge="1" parent="1" source="HNwQTkgMW-BbUdKWEHss-6" target="HNwQTkgMW-BbUdKWEHss-2">
          <mxGeometry width="50" height="50" relative="1" as="geometry">
            <mxPoint x="390" y="240" as="sourcePoint" />
            <mxPoint x="440" y="190" as="targetPoint" />
          </mxGeometry>
        </mxCell>
        <mxCell id="HNwQTkgMW-BbUdKWEHss-9" value="" style="endArrow=classic;html=1;rounded=0;exitX=0.5;exitY=1;exitDx=0;exitDy=0;" edge="1" parent="1" source="HNwQTkgMW-BbUdKWEHss-2" target="HNwQTkgMW-BbUdKWEHss-5">
          <mxGeometry width="50" height="50" relative="1" as="geometry">
            <mxPoint x="304" y="150" as="sourcePoint" />
            <mxPoint x="330" y="182" as="targetPoint" />
          </mxGeometry>
        </mxCell>
        <mxCell id="HNwQTkgMW-BbUdKWEHss-11" value="" style="endArrow=classic;html=1;rounded=0;entryX=0.5;entryY=1;entryDx=0;entryDy=0;exitX=0.75;exitY=0;exitDx=0;exitDy=0;" edge="1" parent="1" source="HNwQTkgMW-BbUdKWEHss-7" target="HNwQTkgMW-BbUdKWEHss-1">
          <mxGeometry width="50" height="50" relative="1" as="geometry">
            <mxPoint x="520" y="350" as="sourcePoint" />
            <mxPoint x="424" y="390" as="targetPoint" />
          </mxGeometry>
        </mxCell>
        <mxCell id="HNwQTkgMW-BbUdKWEHss-12" value="" style="endArrow=classic;html=1;rounded=0;exitX=0;exitY=0.5;exitDx=0;exitDy=0;entryX=0.991;entryY=0.432;entryDx=0;entryDy=0;entryPerimeter=0;" edge="1" parent="1" source="HNwQTkgMW-BbUdKWEHss-1" target="HNwQTkgMW-BbUdKWEHss-2">
          <mxGeometry width="50" height="50" relative="1" as="geometry">
            <mxPoint x="534" y="355" as="sourcePoint" />
            <mxPoint x="565" y="290" as="targetPoint" />
          </mxGeometry>
        </mxCell>
        <mxCell id="HNwQTkgMW-BbUdKWEHss-13" value="" style="endArrow=classic;html=1;rounded=0;exitX=0;exitY=0.5;exitDx=0;exitDy=0;entryX=1;entryY=0.5;entryDx=0;entryDy=0;" edge="1" parent="1" source="HNwQTkgMW-BbUdKWEHss-2" target="HNwQTkgMW-BbUdKWEHss-3">
          <mxGeometry width="50" height="50" relative="1" as="geometry">
            <mxPoint x="304" y="150" as="sourcePoint" />
            <mxPoint x="330" y="182" as="targetPoint" />
          </mxGeometry>
        </mxCell>
        <mxCell id="HNwQTkgMW-BbUdKWEHss-14" value="" style="endArrow=classic;html=1;rounded=0;exitX=0.25;exitY=0;exitDx=0;exitDy=0;entryX=0.5;entryY=1;entryDx=0;entryDy=0;" edge="1" parent="1" source="HNwQTkgMW-BbUdKWEHss-5" target="HNwQTkgMW-BbUdKWEHss-3">
          <mxGeometry width="50" height="50" relative="1" as="geometry">
            <mxPoint x="330" y="250" as="sourcePoint" />
            <mxPoint x="300" y="330" as="targetPoint" />
          </mxGeometry>
        </mxCell>
        <mxCell id="HNwQTkgMW-BbUdKWEHss-15" value="" style="endArrow=classic;html=1;rounded=0;exitX=0;exitY=0.5;exitDx=0;exitDy=0;entryX=0.5;entryY=1;entryDx=0;entryDy=0;" edge="1" parent="1" source="HNwQTkgMW-BbUdKWEHss-3" target="HNwQTkgMW-BbUdKWEHss-7">
          <mxGeometry width="50" height="50" relative="1" as="geometry">
            <mxPoint x="390" y="240" as="sourcePoint" />
            <mxPoint x="590" y="430" as="targetPoint" />
            <Array as="points">
              <mxPoint x="150" y="240" />
              <mxPoint x="150" y="440" />
              <mxPoint x="469" y="440" />
            </Array>
          </mxGeometry>
        </mxCell>
      </root>
    </mxGraphModel>
  </diagram>
</mxfile>
